<svg xmlns="http://www.w3.org/2000/svg" viewBox="0 0 64 64">
  <circle cx="32" cy="32" r="32" fill="#4C1D95"/>
  <g stroke="#F59E0B" stroke-width="2.5" fill="none">
    <rect x="14" y="14" width="36" height="36" transform="rotate(0 32 32)"/>
    <rect x="14" y="14" width="36" height="36" transform="rotate(45 32 32)"/>
  </g>
  <g fill="rgba(255,255,255,0.15)" stroke="rgba(255,255,255,0.5)" stroke-width="1.2">
    <path d="M32,20 C30,22 30,26 32,28 C34,26 34,22 32,20 Z"/>
    <path d="M32,20 C30,22 30,26 32,28 C34,26 34,22 32,20 Z" transform="rotate(45 32 32)"/>
    <path d="M32,20 C30,22 30,26 32,28 C34,26 34,22 32,20 Z" transform="rotate(90 32 32)"/>
    <path d="M32,20 C30,22 30,26 32,28 C34,26 34,22 32,20 Z" transform="rotate(135 32 32)"/>
    <path d="M32,20 C30,22 30,26 32,28 C34,26 34,22 32,20 Z" transform="rotate(180 32 32)"/>
    <path d="M32,20 C30,22 30,26 32,28 C34,26 34,22 32,20 Z" transform="rotate(225 32 32)"/>
    <path d="M32,20 C30,22 30,26 32,28 C34,26 34,22 32,20 Z" transform="rotate(270 32 32)"/>
    <path d="M32,20 C30,22 30,26 32,28 C34,26 34,22 32,20 Z" transform="rotate(315 32 32)"/>
  </g>
  <line x1="32" y1="46" x2="32" y2="30" stroke="rgba(255,255,255,0.9)" stroke-width="2.5" stroke-linecap="round"/>
  <path d="M32,33 C27,27 21,23 18,19" fill="none" stroke="rgba(255,255,255,0.9)" stroke-width="2" stroke-linecap="round"/>
  <path d="M32,33 C37,27 43,23 46,19" fill="none" stroke="rgba(255,255,255,0.9)" stroke-width="2" stroke-linecap="round"/>
  <path d="M32,30 C30.5,26 30.5,21 32,18 C33.5,21 33.5,26 32,30 Z" fill="#F59E0B"/>
  <circle cx="32" cy="33" r="4" fill="#F59E0B"/>
  <circle cx="32" cy="33" r="1.8" fill="#FEF3C7"/>
</svg>
